<?xml version="1.0" standalone="no"?><!DOCTYPE svg PUBLIC "-//W3C//DTD SVG 1.1//EN" "http://www.w3.org/Graphics/SVG/1.1/DTD/svg11.dtd"><svg t="1709643375768" class="icon" viewBox="0 0 1024 1024" version="1.1" xmlns="http://www.w3.org/2000/svg" p-id="32308" xmlns:xlink="http://www.w3.org/1999/xlink" width="32" height="32"><path d="M628.0704 310.44608h110.98624a35.54816 35.54816 0 1 0 0-71.0912H628.0704a35.54816 35.54816 0 1 0 0 71.0912z m271.77472 69.58592V174.66368A87.93088 87.93088 0 0 0 811.81696 87.04H209.61792a87.93088 87.93088 0 0 0-88.03328 87.62368v73.0624A73.40032 73.40032 0 0 0 81.92 312.75008v550.80448A73.66144 73.66144 0 0 0 155.648 936.96h712.704a73.66144 73.66144 0 0 0 73.728-73.40544v-417.28a73.41056 73.41056 0 0 0-42.23488-66.24256zM799.8464 186.5728v186.32192H608.768L487.15776 239.34976h-265.5744V186.5728H799.8464z m-219.36128 472.29952H488.77056v91.29472a35.712 35.712 0 0 1-71.42912 0v-91.29472H325.632a35.54816 35.54816 0 1 1 0-71.0912h91.70944V496.49664a35.712 35.712 0 0 1 71.42912 0V587.776h91.71456a35.54816 35.54816 0 1 1 0 71.09632z" fill="#6ea3e5" p-id="32309"></path></svg>