<?xml version="1.0" standalone="no"?><!DOCTYPE svg PUBLIC "-//W3C//DTD SVG 1.1//EN" "http://www.w3.org/Graphics/SVG/1.1/DTD/svg11.dtd"><svg t="1709645912837" class="icon" viewBox="0 0 1024 1024" version="1.1" xmlns="http://www.w3.org/2000/svg" p-id="10281" xmlns:xlink="http://www.w3.org/1999/xlink" width="32" height="32"><path d="M385.6 528a20.8 20.8 0 0 0-1.6 2.4 20.8 20.8 0 0 0-1.6-2.4z" fill="#6ea3e5" p-id="10282"></path><path d="M385.6 528a20.8 20.8 0 0 0-1.6 2.4 20.8 20.8 0 0 0-1.6-2.4zM641.6 528l-1.6 2.4-1.6-2.4z" fill="#6ea3e5" p-id="10283"></path><path d="M954.24 357.12l-11.68-30.56L828.48 99.2A64 64 0 0 0 771.2 64H252.8a64 64 0 0 0-57.28 35.2L81.6 325.92l-11.68 30.56a167.36 167.36 0 0 0 18.72 131.52A161.12 161.12 0 0 0 128 531.84a161.28 161.28 0 0 0 48 26.4 167.04 167.04 0 0 0 195.52-67.68l-1.76-2.56h3.52a12.16 12.16 0 0 0-1.76 2.56 166.72 166.72 0 0 0 280.96 0 12.16 12.16 0 0 0-1.76-2.56h3.52l-1.76 2.56A167.04 167.04 0 0 0 848 558.24a169.44 169.44 0 0 0 86.56-69.92A166.24 166.24 0 0 0 960 400a161.44 161.44 0 0 0-5.76-42.88zM896 450.08a9.76 9.76 0 0 1-1.12 2.24 77.12 77.12 0 0 1-4.32 8A115.84 115.84 0 0 1 848 500.8a113.92 113.92 0 0 1-143.04-27.68 49.12 49.12 0 0 0-3.2-8A51.52 51.52 0 0 0 688 448a52.64 52.64 0 0 0-34.4-12.8h-3.52a53.44 53.44 0 0 0-48 29.92 68.64 68.64 0 0 0-3.04 8 113.92 113.92 0 0 1-176 0 68.64 68.64 0 0 0-3.04-8 53.44 53.44 0 0 0-48-29.92h-3.52A52.64 52.64 0 0 0 336 448a51.52 51.52 0 0 0-13.12 17.12 49.12 49.12 0 0 0-3.2 8A113.92 113.92 0 0 1 176 500.8a115.84 115.84 0 0 1-42.56-40.48 77.12 77.12 0 0 1-4.32-8 9.76 9.76 0 0 1-1.12-2.24A114.24 114.24 0 0 1 116.64 400a99.52 99.52 0 0 1 0.96-13.76 5.76 5.76 0 0 1 0-1.6 108 108 0 0 1 2.24-12.16l10.72-28 119.2-227.84h524.48l118.4 226.56v1.44l10.88 28.48c0.96 4 1.76 8 2.4 12.32a9.6 9.6 0 0 0 0 1.92v12.96a114.24 114.24 0 0 1-9.92 49.76z" fill="#6ea3e5" p-id="10284"></path><path d="M641.6 528l-1.6 2.4-1.6-2.4zM914.56 408.32l-10.56-27.84a138.72 138.72 0 0 1 10.56 27.84zM616 264h-80v-80a24 24 0 0 0-48 0v80h-80a24 24 0 0 0 0 48h80v80a24 24 0 0 0 48 0v-80h80a24 24 0 0 0 0-48zM654.24 435.2h-3.52a52.16 52.16 0 0 0-34.24 12.8H688a52.64 52.64 0 0 0-33.76-12.8z m-280.96 0h-3.52A52.64 52.64 0 0 0 336 448h72.16a52.16 52.16 0 0 0-34.88-12.8z m280.96 0h-3.52a52.16 52.16 0 0 0-34.24 12.8H688a52.64 52.64 0 0 0-33.76-12.8z m-280.96 0h-3.52A52.64 52.64 0 0 0 336 448h72.16a52.16 52.16 0 0 0-34.88-12.8z" fill="#6ea3e5" p-id="10285"></path><path d="M407.52 448H336a52.64 52.64 0 0 1 34.4-12.8h3.52a52.16 52.16 0 0 1 33.6 12.8zM688 448h-71.52a52.16 52.16 0 0 1 34.24-12.8h3.52A52.64 52.64 0 0 1 688 448zM576 936a24 24 0 0 1-24 24H192a64 64 0 0 1-64-64V450.08a9.76 9.76 0 0 0 1.12 2.24 77.12 77.12 0 0 0 4.32 8A115.84 115.84 0 0 0 176 500.8V896a16 16 0 0 0 16 16h360a24 24 0 0 1 24 24zM896 450.08v101.92a24 24 0 0 1-48 0v-51.2a115.84 115.84 0 0 0 42.56-40.48 77.12 77.12 0 0 0 4.32-8 9.76 9.76 0 0 0 1.12-2.24zM768 608a160 160 0 1 1-160 160 160 160 0 0 1 160-160m0-32a192 192 0 1 0 192 192 192 192 0 0 0-192-192z" fill="#6ea3e5" p-id="10286"></path><path d="M880 742.56H688a16 16 0 0 0-14.72 9.92 16 16 0 0 0 0 12.32 16 16 0 0 0 3.36 5.12l57.44 57.44a16 16 0 0 0 22.56 0 16 16 0 0 0 0-22.72l-30.08-30.08H880a16 16 0 0 0 0-32z" fill="#6ea3e5" p-id="10287"></path></svg>