<?xml version="1.0" standalone="no"?><!DOCTYPE svg PUBLIC "-//W3C//DTD SVG 1.1//EN" "http://www.w3.org/Graphics/SVG/1.1/DTD/svg11.dtd"><svg t="1709642951602" class="icon" viewBox="0 0 1117 1024" version="1.1" xmlns="http://www.w3.org/2000/svg" p-id="11501" xmlns:xlink="http://www.w3.org/1999/xlink" width="34.90625" height="32"><path d="M196.266667 774.826667c18.773333 0 34.816 6.826667 47.786667 19.797333 12.970667 13.312 19.456 29.354667 19.456 48.128 0 18.090667-6.485333 33.792-19.456 47.104-12.970667 13.312-29.013333 19.797333-47.786667 19.797333-19.114667 0-35.157333-6.485333-47.786667-19.797333-12.970667-13.312-19.456-28.672-19.456-47.104 0-18.773333 6.485333-34.816 19.456-48.128C161.450667 781.312 177.493333 774.826667 196.266667 774.826667M920.917333 775.850667c18.432 0 34.133333 6.826667 47.445333 19.797333 13.312 13.312 20.138667 29.013333 20.138667 47.104 0 18.773333-6.826667 34.816-20.138667 48.128-13.312 13.312-29.013333 19.797333-47.445333 19.797333-18.773333 0-34.816-6.826667-47.786667-19.797333-12.970667-13.312-19.456-29.354667-19.456-48.128 0-18.090667 6.485333-33.792 19.456-47.104C885.76 782.336 901.802667 775.850667 920.917333 775.850667M654.336 119.466667l2.048 680.277333c0 11.946667-4.096 21.504-11.946667 29.013333-8.192 7.850667-17.749333 11.605333-29.013333 11.605333L328.021333 840.362667c0-40.96-10.581333-73.386667-31.402667-97.28-21.162667-23.893333-54.272-35.498667-98.986667-35.498667-42.666667 0-75.434667 10.922667-98.304 32.768-22.869333 22.186667-34.133333 55.296-34.133333 100.010667l-24.234667 0c-11.946667 0-21.845333-3.413333-29.354667-10.581333-7.850667-6.826667-11.605333-17.066667-11.605333-30.378667L0 256.341333c0-16.725333 3.072-33.109333 9.557333-49.152 6.485333-16.042667 15.36-30.72 26.965333-44.032 11.605333-13.312 25.258667-23.893333 40.618667-32.085333 15.36-7.850667 32.426667-11.946667 50.517333-11.946667L654.336 119.125333 654.336 119.466667zM1004.202667 581.290667c8.533333 0 15.701333 0 22.186667-0.682667 6.485333-0.341333 9.557333-4.778667 9.557333-12.970667 0-1.365333 0-2.389333-0.341333-3.072-0.341333-0.682667-0.341333-1.706667-0.341333-3.072-7.850667-34.133333-16.042667-66.901333-25.258667-98.645333-9.216-31.744-24.576-58.709333-46.421333-80.896-13.994667-13.312-29.013333-22.869333-45.397333-28.672-16.042667-5.802667-31.402667-9.898667-45.738667-11.605333-14.336-1.706667-26.624-2.389333-36.522667-1.706667l-15.701333 1.024c-9.216 0-17.066667 3.413333-23.210667 9.898667-6.144 6.826667-9.557333 13.653333-9.557333 21.504l0 95.232c0 27.989333 0.341333 59.050667 1.024 93.184l0 1.024c0 3.413333 2.389333 7.509333 7.509333 12.629333 4.778667 4.778667 9.898667 7.168 14.677333 7.168L1004.202667 581.632 1004.202667 581.290667zM1020.928 356.693333c26.624 36.181333 46.762667 74.752 60.074667 116.053333 13.312 40.96 22.528 81.578667 27.989333 120.832 5.12 39.253333 7.850667 76.117333 7.509333 110.250667-0.341333 34.133333-0.682667 62.122667-0.682667 83.626667 0 4.096-0.341333 9.216-1.024 15.36-0.682667 5.802667-2.048 11.946667-3.754667 17.749333-1.706667 5.802667-3.754667 10.922667-6.485333 15.36-2.389333 4.096-5.802667 6.144-9.898667 6.144L1051.306667 842.069333c0-23.552-3.754667-44.032-10.922667-60.416-7.509333-16.725333-17.066667-30.378667-29.354667-40.96-12.288-10.581333-26.624-18.090667-43.008-22.869333-16.725333-5.12-33.792-7.509333-52.224-7.509333-18.432 0-35.157333 3.413333-50.517333 10.581333-15.36 6.826667-29.013333 16.384-40.618667 28.330667-11.605333 11.946667-20.48 25.6-27.306667 41.301333-6.826667 15.701333-10.24 32.426667-10.24 49.493333l-18.773333 0c-12.629333 0-23.552-4.437333-32.426667-13.653333-9.216-8.874667-13.653333-19.797333-13.653333-32.426667l0-1.024L722.261333 289.792c0-7.509333 2.730667-16.725333 7.850667-26.624 5.12-10.24 11.946667-15.36 19.456-16.042667 23.210667-2.048 47.445333-1.365333 72.704 2.730667 25.258667 3.754667 50.176 10.24 74.752 19.114667 24.576 9.216 47.786667 20.821333 69.632 35.498667C987.818667 319.146667 1006.250667 336.554667 1020.928 356.693333" fill="#6ea3e5" p-id="11502"></path></svg>