<?xml version="1.0" standalone="no"?><!DOCTYPE svg PUBLIC "-//W3C//DTD SVG 1.1//EN" "http://www.w3.org/Graphics/SVG/1.1/DTD/svg11.dtd"><svg t="1709646142739" class="icon" viewBox="0 0 1024 1024" version="1.1" xmlns="http://www.w3.org/2000/svg" p-id="17662" xmlns:xlink="http://www.w3.org/1999/xlink" width="32" height="32"><path d="M0 0h1024v1024H0z" fill="#6ea3e5" opacity=".01" p-id="17663"></path><path d="M68.266667 136.533333a102.4 102.4 0 0 1 102.4-102.4h682.666666a102.4 102.4 0 0 1 102.4 102.4v546.133334a102.4 102.4 0 0 1-102.4 102.4h-68.266666v102.4a102.4 102.4 0 0 1-102.4 102.4H341.333333a102.4 102.4 0 0 1-102.4-102.4v-102.4H170.666667a102.4 102.4 0 0 1-102.4-102.4V136.533333z m785.066666 580.266667a34.133333 34.133333 0 0 0 34.133334-34.133333V136.533333a34.133333 34.133333 0 0 0-34.133334-34.133333H170.666667a34.133333 34.133333 0 0 0-34.133334 34.133333v546.133334a34.133333 34.133333 0 0 0 34.133334 34.133333h68.266666v-114.107733a170.666667 170.666667 0 0 1 49.9712-120.695467L307.2 463.735467V409.6a102.4 102.4 0 0 1 102.4-102.4h204.8a102.4 102.4 0 0 1 102.4 102.4v54.135467l18.261333 18.261333A170.666667 170.666667 0 0 1 785.066667 602.692267V716.8h68.266666z m-184.797866-204.8h-313.070934l-18.261333 18.295467A102.4 102.4 0 0 0 307.2 602.624V887.466667a34.133333 34.133333 0 0 0 34.133333 34.133333h341.333334a34.133333 34.133333 0 0 0 34.133333-34.133333v-284.7744a102.4 102.4 0 0 0-30.0032-72.3968L668.535467 512zM648.533333 443.733333v-34.133333a34.133333 34.133333 0 0 0-34.133333-34.133333h-204.8a34.133333 34.133333 0 0 0-34.133333 34.133333v34.133333h273.066666zM238.933333 170.666667a34.133333 34.133333 0 0 0 0 68.266666h529.066667a34.133333 34.133333 0 1 0 0-68.266666H238.933333z m170.666667 477.866666a34.133333 34.133333 0 1 0 0 68.266667h204.8a34.133333 34.133333 0 1 0 0-68.266667h-204.8z" fill="#6ea3e5" p-id="17664"></path></svg>