<?xml version="1.0" standalone="no"?><!DOCTYPE svg PUBLIC "-//W3C//DTD SVG 1.1//EN" "http://www.w3.org/Graphics/SVG/1.1/DTD/svg11.dtd"><svg t="1709643022626" class="icon" viewBox="0 0 1097 1024" version="1.1" xmlns="http://www.w3.org/2000/svg" p-id="14163" xmlns:xlink="http://www.w3.org/1999/xlink" width="34.28125" height="32"><path d="M544.109714 46.738286a482.742857 482.742857 0 1 1-237.787428 902.948571H100.937143V721.188571A482.742857 482.742857 0 0 1 544.182857 46.811429z m0 87.771428a394.971429 394.971429 0 0 0-359.350857 559.104l3.949714 8.704v159.597715h141.677715l10.459428 6.290285A394.971429 394.971429 0 1 0 544.182857 134.582857zM313.124571 460.214857a69.266286 69.266286 0 1 1 0 138.532572 69.266286 69.266286 0 0 1 0-138.532572z m223.232 0a69.266286 69.266286 0 1 1 0 138.532572 69.266286 69.266286 0 0 1 0-138.532572z m223.158858 0a69.266286 69.266286 0 1 1 0 138.532572 69.266286 69.266286 0 0 1 0-138.532572z" fill="#6ea3e5" p-id="14164"></path></svg>