<?xml version="1.0" standalone="no"?><!DOCTYPE svg PUBLIC "-//W3C//DTD SVG 1.1//EN" "http://www.w3.org/Graphics/SVG/1.1/DTD/svg11.dtd"><svg t="1709647020166" class="icon" viewBox="0 0 1024 1024" version="1.1" xmlns="http://www.w3.org/2000/svg" p-id="21979" xmlns:xlink="http://www.w3.org/1999/xlink" width="32" height="32"><path d="M 792.371 136.602 c -10.6496 -8.3968 -26.2144 -6.3488 -34.6112 4.3008 L 166.707 897.434 c -8.3968 10.6496 -6.5536 26.2144 4.3008 34.4064 a 24.8218 24.8218 0 0 0 34.6112 -4.3008 L 796.672 171.008 c 8.192 -10.6496 6.3488 -26.0096 -4.3008 -34.4064 Z M 192.102 792.371 l 101.581 -135.578 c 0.6144 -0.8192 0.8192 -1.6384 1.2288 -2.6624 c 0.8192 -1.4336 1.6384 -2.8672 2.2528 -4.5056 c 0.6144 -1.6384 0.8192 -3.2768 1.024 -4.9152 c 0.2048 -1.024 0.6144 -1.8432 0.6144 -2.8672 V 388.506 c 0 -109.773 89.2928 -199.066 199.066 -199.066 c 42.1888 0 82.3296 12.9024 116.531 37.6832 c 11.0592 7.9872 26.4192 5.5296 34.4064 -5.5296 s 5.5296 -26.4192 -5.5296 -34.4064 a 247.398 247.398 0 0 0 -96.0512 -41.984 c 0 -2.6624 -0.2048 -5.5296 -0.8192 -7.9872 c -0.6144 -3.072 -1.6384 -6.3488 -2.8672 -9.216 c -1.2288 -2.8672 -2.8672 -5.7344 -4.5056 -8.3968 c -1.8432 -2.8672 -3.8912 -5.12 -6.144 -7.5776 c -18.432 -18.432 -51.4048 -18.432 -69.8368 0 c -2.4576 2.4576 -4.5056 4.7104 -6.3488 7.5776 c -1.8432 2.6624 -3.072 5.5296 -4.5056 8.3968 c -1.2288 3.072 -2.2528 6.144 -2.6624 9.216 c -0.8192 2.8672 -1.024 5.5296 -1.024 8.192 c -113.254 22.9376 -198.861 123.29 -198.861 243.302 v 245.35 l -96.6656 129.024 a 24.535 24.535 0 0 0 19.6608 39.3216 c 7.3728 -0.2048 14.7456 -3.6864 19.456 -10.0352 Z M 842.752 762.88 l -96.6656 -129.024 V 368.026 c 0 -13.5168 -11.0592 -24.576 -24.576 -24.576 s -24.576 11.0592 -24.576 24.576 v 267.469 c 0 9.6256 3.072 19.0464 8.8064 26.624 l 97.6896 130.253 c 4.9152 6.7584 2.6624 13.1072 1.4336 15.5648 s -5.12 8.192 -13.312 8.192 H 354.918 c -13.5168 0 -24.576 11.0592 -24.576 24.576 s 11.0592 24.576 24.576 24.576 h 41.1648 c 8.8064 48.128 50.9952 84.7872 101.786 84.7872 s 92.7744 -36.6592 101.786 -84.7872 h 191.898 c 24.3712 0 46.4896 -13.5168 57.344 -35.4304 c 10.6496 -21.7088 8.3968 -47.5136 -6.144 -66.9696 Z M 497.869 901.12 c -23.3472 0 -43.2128 -14.9504 -50.9952 -35.6352 h 101.786 A 54.231 54.231 0 0 1 497.869 901.12 Z" p-id="21980" fill="#6ea3e5"></path></svg>