<?xml version="1.0" standalone="no"?><!DOCTYPE svg PUBLIC "-//W3C//DTD SVG 1.1//EN" "http://www.w3.org/Graphics/SVG/1.1/DTD/svg11.dtd"><svg t="1709645745657" class="icon" viewBox="0 0 1024 1024" version="1.1" xmlns="http://www.w3.org/2000/svg" p-id="5085" xmlns:xlink="http://www.w3.org/1999/xlink" width="32" height="32"><path d="M743.43 926.01c-8.16 0-16.35-2.01-23.9-6.06L508.44 806.43 295.27 915.99c-17.18 8.82-37.49 7.16-53.02-4.36-15.51-11.48-23.01-30.43-19.58-49.43l42.73-235.84L95.35 457.48c-13.71-13.61-18.41-33.46-12.26-51.76 6.14-18.32 21.85-31.31 40.99-33.9l237.47-32.25 108.07-213.91c8.63-17.1 25.83-27.67 44.95-27.67h0.49c19.31 0.19 36.53 11.11 44.91 28.52L664.03 342.4l236.84 36.67c19.09 2.95 34.54 16.24 40.34 34.66 5.8 18.42 0.74 38.16-13.23 51.51l-173.17 165.7 38.3 236.58c3.09 19.07-4.77 37.88-20.51 49.09-8.76 6.23-18.94 9.4-29.17 9.4zM508.51 748.79c8.2 0 16.41 2.01 23.85 6.01l202.58 108.94-36.76-227.06a50.366 50.366 0 0 1 14.9-44.44l166.2-159.01-227.3-35.19a50.4 50.4 0 0 1-37.67-27.92l-99.86-207.19-103.71 205.28a50.334 50.334 0 0 1-38.19 27.2l-227.91 30.96 163.2 162.07a50.309 50.309 0 0 1 14.06 44.72L280.91 859.5l204.58-105.15a50.405 50.405 0 0 1 23.02-5.56z" p-id="5086" fill="#f4ea2a"></path></svg>