<?xml version="1.0" standalone="no"?><!DOCTYPE svg PUBLIC "-//W3C//DTD SVG 1.1//EN" "http://www.w3.org/Graphics/SVG/1.1/DTD/svg11.dtd"><svg t="1709645876655" class="icon" viewBox="0 0 1024 1024" version="1.1" xmlns="http://www.w3.org/2000/svg" p-id="9095" xmlns:xlink="http://www.w3.org/1999/xlink" width="32" height="32"><path d="M493.466901 957.234387c-49.366338 0-103.455233-1.01819-154.657382-4.074805-87.591941-5.229095-134.185118-49.855478-157.847028-86.371137-25.437345-39.255049-30.089295-77.387531-30.274513-78.992075a20.326954 20.326954 0 0 1-0.122797-1.652639l-8.94165-274.962376-51.988048-65.781192c-6.868431-8.689916-5.390777-21.301142 3.298116-28.169573 8.689916-6.867408 21.301142-5.389754 28.169573 3.299139l56.08332 70.963215a20.049638 20.049638 0 0 1 4.310165 11.783371l9.122775 280.534277c0.687662 4.572132 5.64865 33.455973 24.843828 62.448284 27.149337 41.005926 69.453838 63.501266 125.736702 66.860781 144.753825 8.643867 313.478598 0.730641 327.61148 0.037862 4.789073-0.754177 34.112935-5.844102 63.775512-21.48636 40.498366-21.3564 63.054081-51.990095 67.039859-91.047646 7.825222-76.697823 7.506974-184.367031 7.336082-242.212484-0.13303-44.920072-0.042979-47.882544 1.600451-52.812833 1.699712-5.099135 2.927679-8.78406 39.467897-45.324278 16.531512-16.531512 32.997532-32.426527 33.16126-32.585139 7.970532-7.692193 20.666692-7.465019 28.357862 0.506537 7.691169 7.971555 7.463995 20.666692-0.505513 28.357861-24.578792 23.716144-53.116755 52.302203-61.883419 62.497403-0.183172 7.414877-0.137123 22.965038-0.089028 39.241746 0.185218 62.689784 0.49528 167.615509-7.543813 246.401899-5.398964 52.905954-36.307927 95.459119-89.387843 123.060757-38.443567 19.990287-75.162864 25.056676-76.707033 25.26236a19.85214 19.85214 0 0 1-1.616824 0.149403c-1.184989 0.062422-80.46973 4.067642-178.349991 4.067642zM383.497301 388.923894a19.989263 19.989263 0 0 1-13.994736-5.691629c-7.93267-7.729032-8.097422-20.426215-0.36839-28.358885 32.598442-33.455973 28.110221-55.593156-7.007601-125.8288-39.068807-78.137615 9.425673-153.078421 11.508102-156.230204 6.108115-9.240455 18.548448-11.780301 27.789926-5.672186 9.222035 6.095835 11.769045 18.500353 5.706979 27.734667-0.249687 0.387833-9.972119 15.592117-15.744589 37.756929-7.413853 28.464285-5.187139 54.865585 6.615674 78.472236 35.283598 70.567195 52.881394 117.341498-0.140193 171.757852a19.99131 19.99131 0 0 1-14.365172 6.06002zM552.893362 388.923894a19.989263 19.989263 0 0 1-13.994735-5.691629c-7.93267-7.729032-8.097422-20.426215-0.368391-28.358885 32.598442-33.455973 28.110221-55.593156-7.0076-125.8288-39.068807-78.137615 9.425673-153.078421 11.508101-156.230204 6.107091-9.240455 18.548448-11.780301 27.789927-5.672186 9.222035 6.095835 11.769045 18.500353 5.706978 27.734667-0.25071 0.387833-9.972119 15.592117-15.744589 37.756929-7.413853 28.464285-5.187139 54.865585 6.615675 78.472236 35.283598 70.567195 52.881394 117.341498-0.140193 171.757852a19.993357 19.993357 0 0 1-14.365173 6.06002z" fill="#6ea3e5" p-id="9096"></path><path d="M555.183522 567.476499H263.320221c-11.076266 0-20.054755-8.978489-20.054755-20.054755s8.978489-20.054755 20.054755-20.054755h291.863301c11.076266 0 20.054755 8.978489 20.054754 20.054755s-8.978489 20.054755-20.054754 20.054755z" fill="#6ea3e5" p-id="9097"></path><path d="M474.964502 791.328823c-16.298198 0-34.053584-2.310625-53.692876-6.913457-85.534072-20.047592-101.606119-122.129548-102.248756-126.465296-1.13587-7.671727 2.243087-15.494902 9.096169-19.883863 3.323699-2.128477 7.255241-3.109828 11.202133-3.109827h250.814396a0.305969 0.305969 0 0 0 0.25378-0.135077L899.091152 176.819125c6.189979-9.184173 18.654872-11.610432 27.839045-5.421477 9.184173 6.191003 11.611455 18.654872 5.421477 27.840069l-310.567292 463.220017c-0.037862 0.056282 0.01842-0.064468 0 0-1.177825 4.113691-1.911536 6.130627-3.00852 9.024537-21.195741 55.932893-48.617277 90.229001-85.775572 107.630323-17.421788 8.15882-36.44812 12.215206-58.035788 12.216229zM365.215936 675.065889a0.304945 0.304945 0 0 0-0.292666 0.403183c8.499581 24.592095 27.275203 60.934814 65.500806 69.89386 36.405141 8.53335 63.594387 7.715729 85.563748-2.573615 23.115464-10.82658 42.214451-32.9259 58.048068-67.283406a0.310062 0.310062 0 0 0-0.27834-0.440022H365.215936z" fill="#6ea3e5" p-id="9098"></path></svg>